<svg xmlns="http://www.w3.org/2000/svg" width="19" height="19" fill="none" viewBox="0 0 19 19">
    <path fill="#83DCFF" fill-rule="evenodd" d="M4.14833 14.9124C7.22957 17.9937 12.2252 17.9937 15.3065 14.9124C18.3877 11.8312 18.3877 6.83552 15.3065 3.75429C12.2252 0.67305 7.22957 0.67305 4.14833 3.75429C1.06709 6.83552 1.06709 11.8312 4.14833 14.9124Z" clip-rule="evenodd"/>
    <path fill="#3AA6D2" fill-rule="evenodd" d="M3.36358 3.40801C-0.151141 6.92273 -0.151141 12.6212 3.36358 16.1359C6.88066 19.6449 12.5744 19.6449 16.0915 16.1359C19.6062 12.6212 19.6062 6.92273 16.0915 3.40801C12.5768 -0.106707 6.8783 -0.106707 3.36358 3.40801ZM4.53531 4.57969C7.4029 1.7121 12.0522 1.7121 14.9198 4.57969C17.7817 7.44965 17.7817 12.0942 14.9198 14.9642C12.0522 17.8317 7.4029 17.8317 4.53531 14.9642C1.66772 12.0966 1.66772 7.44728 4.53531 4.57969Z" clip-rule="evenodd"/>
    <path fill="#3AA6D2" d="M9.90799 5.5332C10.2615 5.5332 10.548 5.81974 10.548 6.1732V12.4832C10.548 12.8367 10.2615 13.1232 9.90799 13.1232H9.55799C9.20453 13.1232 8.91799 12.8367 8.91799 12.4832V6.1732C8.91799 5.81974 9.20453 5.5332 9.55799 5.5332H9.90799Z"/>
    <path fill="#3AA6D2" d="M13.528 9.51389C13.528 9.86735 13.2414 10.1539 12.888 10.1539H6.57799C6.22453 10.1539 5.93799 9.86735 5.93799 9.51389V9.16389C5.93799 8.81042 6.22453 8.52389 6.57799 8.52389H12.888C13.2414 8.52389 13.528 8.81043 13.528 9.16389V9.51389Z"/>
</svg>
