<svg xmlns="http://www.w3.org/2000/svg" width="10" height="10" fill="none" viewBox="0 0 10 10">
  <path fill="#7892AA" fill-rule="evenodd"
        d="M4.1327 0.234591L0.734591 3.6327C0.595221 3.77207 0.51795 3.95003 0.50278 4.13218C0.202346 4.30469 0 4.62871 0 5C0 5.37129 0.202347 5.69531 0.502781 5.86782C0.517951 6.04997 0.595221 6.22793 0.734591 6.3673L4.1327 9.76541C4.44549 10.0782 4.95262 10.0782 5.26541 9.76541C5.5782 9.45262 5.5782 8.94549 5.26541 8.6327L2.6327 6H9C9.55229 6 10 5.55228 10 5C10 4.44772 9.55228 4 9 4H2.6327L5.26541 1.3673C5.5782 1.05451 5.5782 0.547379 5.26541 0.234591C4.95262 -0.0781969 4.44549 -0.0781969 4.1327 0.234591Z"
        clip-rule="evenodd"/>
</svg>
