<svg xmlns="http://www.w3.org/2000/svg" width="18" height="18" fill="none" viewBox="0 0 18 18">
    <rect width="15.33" height="3.92" x="1.03027" y="3.0293" fill="#83DCFF"/>
    <path fill="#3AA6D2" fill-rule="evenodd" d="M2.77 17.5809H14.77C16.2715 17.5644 17.4801 16.3425 17.48 14.8409V4.62086C17.48 3.1076 16.2533 1.88086 14.74 1.88086H2.74C1.22674 1.88086 0 3.1076 0 4.62086V14.8409C-4.38721e-05 15.5728 0.292748 16.2743 0.813105 16.789C1.33346 17.3037 2.03812 17.5889 2.77 17.5809ZM1.94443 3.80396C2.16476 3.58929 2.46249 3.47276 2.77 3.48086H14.74C15.3673 3.48629 15.8746 3.99352 15.88 4.62086V14.8609C15.8746 15.4882 15.3673 15.9954 14.74 16.0009H2.74C2.435 15.9982 2.14354 15.8745 1.92974 15.657C1.71595 15.4394 1.59734 15.1459 1.6 14.8409V4.62086C1.59989 4.31324 1.72411 4.01864 1.94443 3.80396Z" clip-rule="evenodd"/>
    <rect width="1.34" height="5" x="4.32031" fill="#3AA6D2" rx="0.67"/>
    <rect width="1.34" height="5" x="11.7998" fill="#3AA6D2" rx="0.67"/>
    <rect width="15.33" height="1.14" x="1.03027" y="6.38086" fill="#3AA6D2"/>
</svg>
