<svg xmlns="http://www.w3.org/2000/svg" width="21" height="21" fill="none" viewBox="0 0 21 21">
  <path fill="#3AA6D2" fill-rule="evenodd"
        d="M10.029 1.6C5.381 1.6 1.599 5.382 1.599 10.031C1.599 14.679 5.381 18.46 10.029 18.46C14.677 18.46 18.459 14.679 18.459 10.031C18.459 5.382 14.677 1.6 10.029 1.6M10.029 20.06C4.499 20.06 0 15.561 0 10.031C0 4.499 4.499 0 10.029 0C15.56 0 20.059 4.499 20.059 10.031C20.059 15.561 15.56 20.06 10.029 20.06"
        clip-rule="evenodd"/>
  <path fill="#83DCFF" fill-rule="evenodd"
        d="M10.7242 13.7031L12.6902 10.7511C13.0592 10.1961 12.6612 9.45312 11.9952 9.45312H8.06321C7.39621 9.45312 6.99821 10.1961 7.36821 10.7511L9.3342 13.7031C9.6642 14.2001 10.3932 14.2001 10.7242 13.7031Z"
        clip-rule="evenodd"/>
  <path fill="#3AA6D2" fill-rule="evenodd"
        d="M8.06379 10.1037C7.97179 10.1037 7.92479 10.1567 7.90079 10.2017C7.87679 10.2457 7.85879 10.3147 7.90979 10.3907L9.87579 13.3427C9.97279 13.4877 10.0868 13.4857 10.1838 13.3427L12.1498 10.3907C12.2008 10.3147 12.1828 10.2457 12.1588 10.2017C12.1348 10.1567 12.0868 10.1037 11.9958 10.1037H8.06379ZM10.0298 14.7257C9.53179 14.7257 9.06979 14.4787 8.79379 14.0637L6.82779 11.1117C6.52279 10.6547 6.49579 10.0707 6.75479 9.58673C7.01379 9.10373 7.51579 8.80273 8.06379 8.80273H11.9958C12.5438 8.80273 13.0458 9.10373 13.3048 9.58673C13.5638 10.0717 13.5358 10.6557 13.2318 11.1117L11.2658 14.0637C10.9898 14.4787 10.5278 14.7257 10.0298 14.7257V14.7257Z"
        clip-rule="evenodd"/>
  <path fill="#3AA6D2" fill-rule="evenodd"
        d="M10.025 5.98438H10.035C10.394 5.98438 10.685 6.27637 10.685 6.63437V8.74338C10.685 9.10238 10.394 9.39337 10.035 9.39337H10.025C9.666 9.39337 9.375 9.10238 9.375 8.74338V6.63437C9.375 6.27637 9.666 5.98438 10.025 5.98438Z"
        clip-rule="evenodd"/>
</svg>
