<svg xmlns="http://www.w3.org/2000/svg" width="13" height="14" fill="none" viewBox="0 0 13 14">
    <path fill="#6B707B" fill-rule="evenodd" d="M11.8029 0.990159C11.4124 0.599635 10.7792 0.599635 10.3887 0.990159L6.49959 4.87925L2.6105 0.990159C2.21998 0.599635 1.58681 0.599635 1.19629 0.990159L0.489182 1.69727C0.0986579 2.08779 0.0986578 2.72096 0.489182 3.11148L4.37827 7.00057L0.489183 10.8897C0.0986584 11.2802 0.0986583 11.9133 0.489183 12.3039L1.19629 13.011C1.58681 13.4015 2.21998 13.4015 2.6105 13.011L6.49959 9.12189L10.3887 13.011C10.7792 13.4015 11.4124 13.4015 11.8029 13.011L12.51 12.3039C12.9005 11.9133 12.9005 11.2802 12.51 10.8897L8.62091 7.00057L12.51 3.11148C12.9005 2.72095 12.9005 2.08779 12.51 1.69727L11.8029 0.990159Z" clip-rule="evenodd"/>
</svg>
