<svg xmlns="http://www.w3.org/2000/svg" width="16" height="16" fill="none" viewBox="0 0 16 16">
  <path fill="#FFB3B3" fill-rule="evenodd"
        d="M8.0018 15.2653C12.0133 15.2653 15.2653 12.0133 15.2653 8.0018C15.2653 3.99027 12.0133 0.738281 8.0018 0.738281C3.99027 0.738281 0.738281 3.99027 0.738281 8.0018C0.738281 12.0133 3.99027 15.2653 8.0018 15.2653Z"
        clip-rule="evenodd"/>
  <path fill="#E26161" fill-rule="evenodd"
        d="M0 8C0 12.4183 3.58172 16 8 16C12.4162 15.9949 15.9949 12.4162 16 8C16 3.58172 12.4183 0 8 0C3.58172 0 0 3.58172 0 8ZM1.47292 7.99996C1.47292 4.39517 4.39517 1.47292 7.99996 1.47292C11.6026 1.47799 14.5219 4.39728 14.527 7.99996C14.527 11.6047 11.6047 14.527 7.99996 14.527C4.39517 14.527 1.47292 11.6047 1.47292 7.99996Z"
        clip-rule="evenodd"/>
  <rect width="6.98734" height="1.50058" x="6.06055" y="4.99219" fill="#E26161" rx="0.64"
        transform="rotate(45 6.06055 4.99219)"/>
  <rect width="6.98734" height="1.50058" x="11.0078" y="6.06055" fill="#E26161" rx="0.64"
        transform="rotate(135 11.0078 6.06055)"/>
</svg>
