<svg xmlns="http://www.w3.org/2000/svg" width="17" height="21" fill="none" viewBox="0 0 17 21">
  <path fill="#83dcff" fill-rule="evenodd" d="M 9.3 1.5 L 9 8.2 H 15.6 L 9.3 1.5 Z" clip-rule="evenodd"/>
  <mask id="mask0" width="17" height="20" x="0" y="1" mask-type="alpha" maskUnits="userSpaceOnUse">
    <path fill="white" fill-rule="evenodd" d="M 0 1 H 16.2 V 20.4 H 0 V 1 Z" clip-rule="evenodd"/>
  </mask>
  <g mask="url(#mask0)">
    <path fill="#3aa6d2" fill-rule="evenodd"
          d="M 14.6 18.8 H 1.6 V 2.6 H 8.1 V 7.9 C 8.1 8.2 8.2 8.5 8.4 8.7 C 8.7 9 9 9.1 9.3 9.1 H 14.6 V 18.8 Z M 9.7 2.7 C 10 2.8 10.1 2.9 10.2 3 L 14.2 7 C 14.3 7.1 14.4 7.2 14.5 7.5 H 9.7 V 2.7 Z M 15.9 6.8 C 15.8 6.4 15.6 6 15.3 5.8 L 11.4 1.9 C 11.1 1.6 10.8 1.4 10.4 1.3 C 10 1.1 9.6 1 9.3 1 H 1.2 C 0.9 1 0.6 1.1 0.4 1.4 C 0.1 1.6 0 1.9 0 2.2 V 19.2 C 0 19.5 0.1 19.8 0.4 20.1 C 0.6 20.3 0.9 20.4 1.2 20.4 H 15 C 15.3 20.4 15.6 20.3 15.8 20.1 C 16.1 19.8 16.2 19.5 16.2 19.2 V 7.9 C 16.2 7.5 16.1 7.2 15.9 6.8 Z"
          clip-rule="evenodd"/>
  </g>
</svg>
