<svg xmlns="http://www.w3.org/2000/svg" width="16" height="16" fill="none" viewBox="0 0 16 16">
  <path fill="#83DCFF" fill-rule="evenodd"
        d="M10.6797 1.23241L2.36286 9.51382C2.2237 9.65362 2.11727 9.8226 2.05125 10.0086L0.933731 13.4287C0.789315 13.8933 0.915917 14.3997 1.26192 14.7415C1.60792 15.0833 2.11552 15.2033 2.57777 15.0527L5.99478 13.8804C6.18057 13.8143 6.34939 13.7078 6.48907 13.5685L14.7522 5.37311C14.995 5.13095 15.1315 4.802 15.1315 4.45893C15.1315 4.11586 14.995 3.78691 14.7522 3.54475L12.5065 1.28618C12.2717 1.03592 11.9471 0.889556 11.6043 0.879465C11.2615 0.869373 10.9288 0.996383 10.6797 1.23241Z"
        clip-rule="evenodd"/>
  <path fill="#3AA6D2" fill-rule="evenodd"
        d="M0.399422 15.0979C0.802424 15.6634 1.4535 15.9994 2.14755 15.9999C2.38906 16.0025 2.62914 15.9625 2.85674 15.8816L6.26301 14.72C6.57588 14.6162 6.85951 14.4392 7.0904 14.2038L15.3643 5.93312C15.7712 5.52923 16 4.97944 16 4.4059C16 3.83236 15.7712 3.28257 15.3643 2.87868L13.1078 0.630864C12.7047 0.226953 12.1577 0 11.5873 0C11.0169 0 10.47 0.226953 10.0669 0.630864L1.8037 8.90152C1.56504 9.12986 1.38766 9.41466 1.28792 9.72966L0.116679 13.1498C-0.108885 13.8067 -0.00357889 14.5323 0.399422 15.0979ZM11.2806 1.84715C11.3626 1.76344 11.4751 1.71682 11.5922 1.71809C11.7172 1.70764 11.84 1.75522 11.9254 1.84715L14.1819 4.09496C14.2639 4.17582 14.3101 4.28624 14.3101 4.40148C14.3101 4.51672 14.2639 4.62714 14.1819 4.708L5.88648 12.9894C5.83592 13.0351 5.77772 13.0715 5.71455 13.097L2.29754 14.2585C2.13903 14.314 1.96276 14.272 1.84623 14.151C1.72659 14.0333 1.68855 13.8556 1.74952 13.6992L2.91002 10.2899C2.93123 10.2246 2.96812 10.1655 3.01747 10.1178L11.2806 1.84715Z"
        clip-rule="evenodd"/>
</svg>
