<?xml version="1.0" encoding="UTF-8"?>
<svg xmlns:xlink="http://www.w3.org/1999/xlink" width="32px" height="30px" viewBox="0 0 32 30" version="1.1"
     xmlns="http://www.w3.org/2000/svg">
  <!-- Generator: sketchtool 55 (78076) - https://sketchapp.com -->
  <title>183DA74C-8FEE-4A87-B45A-5A362804E0B0</title>
  <desc>Created with sketchtool.</desc>
  <defs>
    <polygon id="path-1"
             points="4.74942144e-06 0.104391008 31.5588003 0.104391008 31.5588003 30 4.74942144e-06 30"></polygon>
  </defs>
  <g id="Page-1" stroke="none" stroke-width="1" fill="none" fill-rule="evenodd">
    <g id="UI-Kit" transform="translate(-449.000000, -4028.000000)">
      <g id="image_error" transform="translate(449.000000, 4027.000000)">
        <g id="Group-3" transform="translate(0.000000, 0.895900)">
          <mask id="mask-2" fill="white">
            <use xlink:href="#path-1"></use>
          </mask>
          <g id="Clip-2"></g>
          <path
            d="M28.7587,15.1953 L27.9837,20.5623 L27.0427,27.0953 C26.9767,27.5663 26.5497,27.8923 26.0717,27.8203 L8.7177,25.3143 L4.6547,24.7273 C4.4297,24.6913 4.2267,24.5753 4.0897,24.3943 C3.9517,24.2133 3.8937,23.9813 3.9297,23.7573 L4.6907,18.4983 L6.2697,7.5393 C6.3347,7.0693 6.7697,6.7503 7.2397,6.8153 L25.1517,9.4013 L27.4627,9.7343 L28.6507,9.9083 C29.1207,9.9733 29.4467,10.4153 29.3747,10.8793 L28.7587,15.1953 Z M3.3147,12.7333 L2.1987,8.0033 C2.1487,7.7783 2.1847,7.5473 2.3007,7.3513 C2.4167,7.1553 2.6117,7.0183 2.8367,6.9673 L4.2627,6.6273 L3.3147,12.7333 Z M4.2627,6.6273 C4.1907,6.8223 4.1397,7.0183 4.1117,7.2283 L3.3147,12.7333 L4.2627,6.6273 Z M10.6657,5.1203 L22.5877,2.2963 C22.6537,2.2813 22.7257,2.2743 22.7907,2.2743 C22.9497,2.2743 23.1017,2.3173 23.2397,2.4043 C23.4357,2.5283 23.5727,2.7163 23.6237,2.9403 L24.6157,7.1343 L10.6657,5.1203 Z M24.6157,7.1343 L10.6657,5.1203 L24.6157,7.1343 Z M2.4737,18.6073 L1.7717,23.4523 C1.6557,24.2563 1.8587,25.0533 2.3437,25.6973 C2.8287,26.3493 3.5387,26.7693 4.3357,26.8853 L25.7527,29.9703 C25.8977,29.9933 26.0427,30.0003 26.1877,30.0003 C27.6727,30.0003 28.9687,28.9063 29.1857,27.3993 L31.5257,11.1833 C31.7717,9.5383 30.6197,7.9963 28.9617,7.7573 L26.9257,7.4673 L25.7387,2.4413 C25.5507,1.6513 25.0717,0.9853 24.3767,0.5573 C23.6887,0.1303 22.8777,0.0003 22.0887,0.1883 L2.3367,4.8603 C1.5477,5.0483 0.8807,5.5263 0.4537,6.2213 C0.0267,6.9093 -0.1043,7.7283 0.0837,8.5103 L2.4737,18.6073 L2.4737,18.6073 Z"
            id="Fill-1" fill="#9BB3C9" mask="url(#mask-2)"></path>
        </g>
        <path
          d="M20.7933,23.5946 L20.7933,23.5946 C20.3153,23.9356 19.6523,23.8246 19.3113,23.3466 L13.0503,14.5756 C12.7093,14.0976 12.8203,13.4346 13.2973,13.0936 C13.7753,12.7526 14.4393,12.8636 14.7803,13.3416 L21.0413,22.1126 C21.3813,22.5906 21.2713,23.2536 20.7933,23.5946"
          id="Fill-4" fill="#9BB3C9"></path>
        <path
          d="M11.7953,22.0917 L11.7953,22.0917 C12.1363,22.5697 12.7993,22.6807 13.2773,22.3397 L22.0483,16.0787 C22.5263,15.7377 22.6373,15.0737 22.2963,14.5967 L22.2953,14.5967 C21.9553,14.1187 21.2913,14.0087 20.8143,14.3487 L12.0423,20.6097 C11.5653,20.9507 11.4543,21.6137 11.7953,22.0917"
          id="Fill-6" fill="#9BB3C9"></path>
      </g>
    </g>
  </g>
</svg>
