<svg xmlns="http://www.w3.org/2000/svg" width="18" height="22" fill="none" viewBox="0 0 18 22">
    <mask id="mask0" width="18" height="21" x="0" y="1" mask-type="alpha" maskUnits="userSpaceOnUse">
        <path fill="white" fill-rule="evenodd" d="M0 1H17.3278V21.368H0V1Z" clip-rule="evenodd"/>
    </mask>
    <g mask="url(#mask0)">
        <path fill="#3AA6D2" fill-rule="evenodd" d="M8.664 1C3.874 1.022 0 4.143 0 9.758C0 15.15 7.977 20.885 8.664 21.368C9.351 20.885 17.328 15.15 17.328 9.758C17.328 4.143 13.454 1.022 8.664 1ZM8.664 2.6C12.955 2.624 15.728 5.433 15.728 9.758C15.728 13.078 11.523 17.168 8.664 19.379C5.805 17.168 1.6 13.078 1.6 9.758C1.6 5.433 4.372 2.624 8.664 2.6Z" clip-rule="evenodd"/>
    </g>
    <path fill="#83DCFF" fill-rule="evenodd" d="M8.66712 12.2903C7.05612 12.2903 5.74512 10.9793 5.74512 9.36827C5.74512 7.75827 7.05612 6.44727 8.66712 6.44727C10.2771 6.44727 11.5881 7.75827 11.5881 9.36827C11.5881 10.9793 10.2771 12.2903 8.66712 12.2903Z" clip-rule="evenodd"/>
    <path fill="#3AA6D2" fill-rule="evenodd" d="M8.66731 5.64844C6.61131 5.64844 4.94531 7.31444 4.94531 9.36944C4.94531 11.4244 6.61131 13.0904 8.66731 13.0904C10.7223 13.0904 12.3883 11.4244 12.3883 9.36944C12.3883 7.31444 10.7223 5.64844 8.66731 5.64844ZM8.66731 7.24944C9.83631 7.24944 10.7873 8.20044 10.7873 9.36944C10.7873 10.5394 9.83631 11.4904 8.66731 11.4904C7.49731 11.4904 6.54631 10.5394 6.54631 9.36944C6.54631 8.20044 7.49731 7.24944 8.66731 7.24944Z" clip-rule="evenodd"/>
</svg>
