<svg xmlns="http://www.w3.org/2000/svg" width="43" height="38" fill="none" viewBox="0 0 43 38">
  <path fill="white" fill-rule="evenodd"
        d="M20.0609 13.691C19.8368 15.4729 20.2353 17.2548 21.183 18.7105L21.3713 19L21.6237 18.7803C22.8924 17.6779 23.715 16.0897 23.9391 14.309C24.1632 12.5271 23.7647 10.7446 22.8175 9.28886L22.6292 9L22.3763 9.21905C21.1076 10.3209 20.285 11.9091 20.0609 13.691"
        clip-rule="evenodd"/>
  <path fill="white" fill-rule="evenodd"
        d="M30.2015 14L30.6007 13.918C32.3617 13.5555 33.8763 12.5768 34.8656 11.1619C35.8557 9.74707 36.2145 8.04797 35.8756 6.37858L35.7982 6L35.3997 6.08205C33.6394 6.44383 32.1241 7.4226 31.1341 8.83808C30.144 10.2529 29.7852 11.952 30.1248 13.6214L30.2015 14Z"
        clip-rule="evenodd"/>
  <path fill="white" fill-rule="evenodd"
        d="M12.5581 5.75956L12.8745 6L13.1245 5.69673C13.7979 4.87861 14.0992 3.86365 13.9712 2.83971C13.8438 1.81449 13.3013 0.891857 12.4423 0.240436L12.1259 0L11.8759 0.302629C11.2026 1.12139 10.9012 2.13635 11.0286 3.16093C11.1574 4.18551 11.6992 5.10814 12.5581 5.75956"
        clip-rule="evenodd"/>
  <path fill="white" fill-rule="evenodd"
        d="M10.9427 16.4924C10.6883 14.7887 9.86667 13.2886 8.62807 12.2699C7.39006 11.2512 5.86901 10.8243 4.34444 11.066L4 11.1205L4.05673 11.5074C4.31111 13.2124 5.13333 14.7125 6.37193 15.7312C7.61053 16.7485 9.13158 17.1761 10.6556 16.9338L11 16.8792L10.9427 16.4924Z"
        clip-rule="evenodd"/>
  <path fill="white" fill-rule="evenodd"
        d="M11.4429 9.91818L11.7973 10L11.8729 9.656C12.187 8.22387 11.9144 6.75531 11.1052 5.52146C10.2948 4.2882 9.03513 3.42104 7.55738 3.08122L7.20297 3L7.12738 3.3434C6.81263 4.77673 7.08587 6.24469 7.89506 7.47854C8.70488 8.7124 9.96514 9.57836 11.4429 9.91818"
        clip-rule="evenodd"/>
  <path fill="white" fill-rule="evenodd"
        d="M20.6298 8L20.9374 7.57995C21.6632 6.58874 22.04 5.30332 21.9966 3.96052C21.9526 2.61712 21.4938 1.35389 20.705 0.402776L20.3702 0L20.0626 0.420046C19.3361 1.41372 18.96 2.69854 19.0034 4.04009C19.0467 5.38288 19.5055 6.64611 20.2957 7.59722L20.6298 8Z"
        clip-rule="evenodd"/>
  <path fill="white" fill-rule="evenodd"
        d="M32.0087 18.6216L32 19L32.3704 18.9994C33.849 18.9981 35.2445 18.4159 36.2999 17.3608C37.3541 16.3057 37.9553 14.8912 37.9913 13.3796L38 13L37.6296 13.0013C36.1504 13.0025 34.7555 13.5841 33.7001 14.6398C32.6447 15.6943 32.0441 17.1088 32.0087 18.6216"
        clip-rule="evenodd"/>
  <path fill="white" fill-rule="evenodd"
        d="M37.4583 21C36.6984 21 35.9549 21.1335 35.2493 21.3965C33.8426 21.9199 32.7421 22.9043 32.1504 24.1693L32 24.4895L32.3611 24.6201C33.0608 24.8718 33.7949 25 34.5417 25C35.3023 25 36.0451 24.8665 36.7507 24.603C38.156 24.0801 39.2566 23.0957 39.8496 21.8313L40 21.5099L39.6389 21.3799C38.9392 21.1282 38.2057 21 37.4583 21"
        clip-rule="evenodd"/>
  <path fill="white" fill-rule="evenodd"
        d="M25.7795 10.6722L25.9541 11L26.2509 10.8012C27.5406 9.94043 28.4542 8.59119 28.8228 7.0012C29.1931 5.41057 28.9787 3.75134 28.2205 2.32778L28.0465 2L27.7491 2.19883C26.46 3.0583 25.5464 4.40817 25.1772 5.99816C24.8069 7.58816 25.0213 9.24802 25.7795 10.6722"
        clip-rule="evenodd"/>
  <path fill="white" fill-rule="evenodd"
        d="M11.0452 23.2619C10.4204 23.0878 9.77747 23 9.13574 23C8.1638 23 7.19654 23.2064 6.3372 23.5962L6 23.7488L6.19485 24.0491C7.03086 25.342 8.36566 26.2967 9.95424 26.7381C10.579 26.9122 11.2208 27 11.8637 27H11.8643C12.8356 27 13.8035 26.7947 14.6628 26.4049L15 26.2523L14.8051 25.9514C13.9697 24.6591 12.6343 23.7038 11.0452 23.2619"
        clip-rule="evenodd"/>
  <path fill="white" fill-rule="evenodd"
        d="M17.7339 14.7755L18.058 15L18.2455 14.647C18.9865 13.2574 19.19 11.6222 18.8192 10.0424C18.4478 8.46195 17.5402 7.10664 16.2661 6.22387L15.9421 6L15.7539 6.35298C15.0136 7.74263 14.81 9.37778 15.1808 10.9576C15.5522 12.5368 16.4592 13.8927 17.7339 14.7755"
        clip-rule="evenodd"/>
  <path fill="white" fill-rule="evenodd"
        d="M42.551 17.1745C42.1748 17.0584 41.7729 17 41.3567 17C40.7667 17 40.1744 17.1161 39.5957 17.3453C38.6045 17.7368 37.7727 18.421 37.2538 19.2702L37 19.6878L37.4496 19.8261C37.8252 19.9416 38.2259 20 38.6415 20C39.2321 20 39.8256 19.8839 40.4043 19.6547C41.3949 19.2632 42.2261 18.579 42.745 17.7305L43 17.3129L42.551 17.1745Z"
        clip-rule="evenodd"/>
  <path fill="white" fill-rule="evenodd"
        d="M5.87694 21.5253C5.57164 20.3458 4.84568 19.2324 3.83276 18.3878C2.82043 17.5452 1.62469 17.0574 0.466226 17.0168L0 17L0.122473 17.4747C0.42836 18.6548 1.15432 19.7695 2.16665 20.6122C3.18016 21.4561 4.3759 21.9432 5.53377 21.9838L6 22L5.87694 21.5253Z"
        clip-rule="evenodd"/>
  <path fill="white" fill-rule="evenodd"
        d="M18.5419 21.8539L18.959 22L18.9883 21.5911C19.077 20.3058 18.6586 18.9329 17.811 17.7259C16.9627 16.5195 15.7713 15.6029 14.4581 15.1449L14.0404 15L14.0117 15.4084C13.923 16.6936 14.3408 18.0659 15.189 19.2723C16.0373 20.4787 17.2274 21.3953 18.5419 21.8539"
        clip-rule="evenodd"/>
  <path fill="white" fill-rule="evenodd"
        d="M30.2912 5L30.5542 4.97425C31.4684 4.8823 32.2061 4.44521 32.6309 3.74207C33.0562 3.03831 33.1162 2.15617 32.7991 1.25747L32.708 1L32.445 1.02575C31.5313 1.1177 30.7936 1.55479 30.3689 2.25793C29.9435 2.96046 29.8841 3.84322 30.2006 4.74192L30.2912 5Z"
        clip-rule="evenodd"/>
  <path fill="white" fill-rule="evenodd"
        d="M38.8647 9.86716C39.5492 9.18368 39.9472 8.28604 39.9865 7.33985L40 7L39.6612 7.01349C38.7166 7.05179 37.8198 7.44828 37.1359 8.13284C36.4524 8.81578 36.0539 9.71342 36.014 10.6591L36 11L36.3393 10.9865C37.2834 10.9482 38.1802 10.5517 38.8647 9.86716"
        clip-rule="evenodd"/>
  <path fill="white" fill-rule="evenodd"
        d="M25.0594 21.0873C24.076 22.6993 23.7632 24.6735 24.1799 26.6451L24.2552 27L24.5832 26.939C26.4102 26.5987 27.9572 25.524 28.9405 23.912C29.9245 22.2993 30.2367 20.3265 29.82 18.3549L29.7447 18L29.4167 18.061C27.5903 18.4 26.0427 19.4753 25.0594 21.0873"
        clip-rule="evenodd"/>
  <path fill="white" fill-rule="evenodd"
        d="M3.99972 8C4.55115 8 5 7.55102 5 6.99943C5 6.44841 4.55115 6 3.99972 6C3.44885 6 3 6.44841 3 6.99943C3 7.55102 3.44885 8 3.99972 8"
        clip-rule="evenodd"/>
  <path fill="white" fill-rule="evenodd"
        d="M18 4C18.5513 4 19 3.55102 19 3C19 2.44841 18.5513 2 18 2C17.4487 2 17 2.44841 17 3C17 3.55102 17.4487 4 18 4"
        clip-rule="evenodd"/>
  <path fill="white" fill-rule="evenodd"
        d="M40 14C40 14.5524 40.4475 15 40.9997 15C41.5519 15 42 14.5524 42 14C42 13.4476 41.5519 13 40.9997 13C40.4475 13 40 13.4476 40 14"
        clip-rule="evenodd"/>
  <path fill="white" fill-rule="evenodd"
        d="M15 13C15 12.4476 14.5525 12 14.0003 12C13.4481 12 13 12.4476 13 13C13 13.5524 13.4481 14 14.0003 14C14.5525 14 15 13.5524 15 13"
        clip-rule="evenodd"/>
  <path fill="white" fill-rule="evenodd"
        d="M28 13C26.8972 13 26 13.8972 26 15C26 16.1028 26.8972 17 28 17C29.1028 17 30 16.1028 30 15C30 13.8972 29.1028 13 28 13"
        clip-rule="evenodd"/>
  <mask id="mask0" width="3" height="3" x="22" y="0" mask-type="alpha" maskUnits="userSpaceOnUse">
    <path fill="white" fill-rule="evenodd" d="M22.0938 0.12207H24.958V2.8904H22.0938V0.12207Z" clip-rule="evenodd"/>
  </mask>
  <g mask="url(#mask0)">
    <path fill="white" fill-rule="evenodd"
          d="M23.5259 2.89035C24.3151 2.89035 24.958 2.26955 24.958 1.50603C24.958 0.743134 24.3151 0.121704 23.5259 0.121704C22.7366 0.121704 22.0938 0.743134 22.0938 1.50603C22.0938 2.26955 22.7366 2.89035 23.5259 2.89035"
          clip-rule="evenodd"/>
  </g>
  <path fill="white" fill-rule="evenodd"
        d="M29.5 25C28.6731 25 28 25.6731 28 26.5C28 27.3276 28.6731 28 29.5 28C30.3276 28 31 27.3276 31 26.5C31 25.6731 30.3276 25 29.5 25"
        clip-rule="evenodd"/>
  <path fill="white" fill-rule="evenodd"
        d="M1.5 15C2.32664 15 3 14.3273 3 13.5C3 12.6734 2.32664 12 1.5 12C0.673358 12 0 12.6734 0 13.5C0 14.3273 0.673358 15 1.5 15"
        clip-rule="evenodd"/>
  <path fill="white" fill-rule="evenodd"
        d="M9.99929 19C8.89682 19 8 19.897 8 20.9996C8 22.103 8.89682 23 9.99929 23C11.1017 23 12 22.103 12 20.9996C12 19.897 11.1017 19 9.99929 19"
        clip-rule="evenodd"/>
  <path fill="white" fill-rule="evenodd"
        d="M21.0902 21H20.1684L19.7656 26.372L14 21.8859L14.0295 22.3302L18.8828 27.7272C19.3434 28.2385 19.5746 28.9151 19.5231 29.6012L18.8929 38H22.3663L22.0302 33.5202C21.9786 32.8348 22.2099 32.1581 22.6698 31.6469L25.9686 27.9778L26 27.496L21.7989 30.4414L21.0902 21Z"
        clip-rule="evenodd"/>
</svg>
