<svg xmlns="http://www.w3.org/2000/svg" width="22" height="21" fill="none" viewBox="0 0 22 21">
  <path fill="#83DCFF" fill-rule="evenodd"
        d="M20.6798 9.73078C20.6798 4.80078 16.2298 0.800781 10.7398 0.800781C5.2498 0.800781 0.799805 4.80078 0.799805 9.73078C0.799805 14.6608 5.2498 18.6608 10.7398 18.6608C11.7163 18.6608 12.6883 18.5296 13.6298 18.2708C14.6063 18.253 15.5389 18.6753 16.1698 19.4208C16.5098 19.7208 16.9898 19.3408 16.8398 18.8908C16.5798 18.0908 16.4398 17.0508 17.2198 16.5108H17.1598C19.3312 14.9277 20.6344 12.4177 20.6798 9.73078Z"
        clip-rule="evenodd"/>
  <path fill="#3AA6D2" fill-rule="evenodd"
        d="M15.62 20.03C15.8413 20.224 16.1257 20.3306 16.42 20.33C16.6554 20.3331 16.8859 20.2632 17.08 20.13C17.5633 19.8074 17.7686 19.1996 17.58 18.65C17.44 18.17 17.26 17.45 17.66 17.17C17.7103 17.1382 17.7543 17.0976 17.79 17.05C20.0846 15.3109 21.4467 12.609 21.48 9.73C21.48 4.36 16.66 0 10.74 0C4.82 0 0 4.37 0 9.73C0 15.09 4.82 19.46 10.75 19.42C11.7627 19.4212 12.7712 19.2901 13.75 19.03C14.39 18.95 15.04 19.52 15.62 20.03ZM15.83 18.15C15.287 17.7209 14.6216 17.4757 13.93 17.45L13.63 17.5C13.5603 17.4903 13.4897 17.4903 13.42 17.5C12.5466 17.7386 11.6454 17.8597 10.74 17.86C5.7 17.86 1.6 14.21 1.6 9.73C1.6 5.25 5.7 1.56 10.74 1.56C15.78 1.56 19.88 5.21 19.88 9.69C19.8416 12.145 18.6437 14.437 16.65 15.87L16.52 16C15.943 16.555 15.6838 17.3629 15.83 18.15Z"
        clip-rule="evenodd"/>
  <path fill="#3AA6D2" fill-rule="evenodd"
        d="M6.87973 11.3298C7.52038 11.3298 8.03973 10.8104 8.03973 10.1698C8.03973 9.52912 7.52038 9.00977 6.87973 9.00977C6.23908 9.00977 5.71973 9.52912 5.71973 10.1698C5.71973 10.8104 6.23908 11.3298 6.87973 11.3298Z"
        clip-rule="evenodd"/>
  <path fill="#3AA6D2" fill-rule="evenodd"
        d="M10.7401 11.3298C11.3807 11.3298 11.9001 10.8104 11.9001 10.1698C11.9001 9.52912 11.3807 9.00977 10.7401 9.00977C10.0994 9.00977 9.58008 9.52912 9.58008 10.1698C9.58008 10.8104 10.0994 11.3298 10.7401 11.3298Z"
        clip-rule="evenodd"/>
  <path fill="#3AA6D2" fill-rule="evenodd"
        d="M14.6004 11.3298C15.2411 11.3298 15.7604 10.8104 15.7604 10.1698C15.7604 9.52912 15.2411 9.00977 14.6004 9.00977C13.9598 9.00977 13.4404 9.52912 13.4404 10.1698C13.4404 10.8104 13.9598 11.3298 14.6004 11.3298Z"
        clip-rule="evenodd"/>
</svg>
