<?xml version="1.0" encoding="UTF-8"?>
<svg width="32px" height="30px" viewBox="0 0 32 30" version="1.1" xmlns="http://www.w3.org/2000/svg" xmlns:xlink="http://www.w3.org/1999/xlink">
    <!-- Generator: sketchtool 55 (78076) - https://sketchapp.com -->
    <title>907A49A3-B1E0-4FE5-A7BB-884949A2C43D</title>
    <desc>Created with sketchtool.</desc>
    <g id="Page-1" stroke="none" stroke-width="1" fill="none" fill-rule="evenodd">
        <g id="UI-Kit" transform="translate(-449.000000, -4218.000000)" fill="#9CB4CA" fill-rule="nonzero">
            <g id="image_no_photo" transform="translate(449.000000, 4218.000000)">
                <path d="M29.3665174,7.67953021 L27.3027979,7.38880445 L26.0983495,2.34471261 C25.9074004,1.55248493 25.4226834,0.883815699 24.7176404,0.454995211 C24.0199417,0.0261747234 23.1973915,-0.104651866 22.396874,0.0843198743 L2.3692476,4.77227266 C1.56873008,4.9612444 0.893063913,5.4409419 0.459756264,6.13868371 C0.0264486147,6.82915738 -0.105746939,7.65045763 0.0852021943,8.43541717 L2.50878735,18.5672097 L1.7964002,23.429598 C1.67889304,24.2363619 1.88453057,25.0358577 2.3765918,25.6827225 C2.86865303,26.3368555 3.58838437,26.7584078 4.39624609,26.8746981 L26.1130379,29.9709274 L26.1130379,29.9709274 C26.2599219,29.9927319 26.4068058,30 26.5536898,30 C28.0592503,30 29.3738616,28.9025103 29.5941875,27.3907364 L31.9663633,11.1173623 C32.216066,9.4674936 31.0483386,7.91937895 29.3665174,7.67953021 Z M22.9036237,2.19934974 C22.9697214,2.18481345 23.0431634,2.17754531 23.1092612,2.17754531 C23.2708335,2.17754531 23.4250617,2.22115417 23.5646014,2.3083719 C23.7628948,2.43193034 23.9024345,2.62090208 23.9538439,2.84621454 L24.9599989,7.05446984 L10.8150747,5.03392584 L22.9036237,2.19934974 Z M2.22970785,7.9266471 C2.17829847,7.70133464 2.21501945,7.46875404 2.33252661,7.27251415 C2.45003377,7.07627427 2.6483271,6.93817953 2.87599722,6.88730253 L4.32280412,6.54569977 C4.24936214,6.74193965 4.19795276,6.93817953 4.16857597,7.14895571 L3.36071425,12.672745 L2.22970785,7.9266471 Z M29.1608799,15.143914 L28.3750507,20.5296086 L27.4203051,27.0854743 C27.3542073,27.5579037 26.9208997,27.8849701 26.4361826,27.8122887 L26.4361826,27.8122887 L26.4361826,27.8122887 C26.4361826,27.8122887 26.4361826,27.8122887 26.4361826,27.8122887 L8.83948555,25.2975109 L4.71939078,24.7087913 C4.49172066,24.6724506 4.28608313,24.5561602 4.14654338,24.3744567 C4.00700363,24.1927531 3.94825005,23.9601725 3.98497104,23.73486 L4.75611177,18.4581876 L6.35714681,7.46148589 C6.42324459,6.98905654 6.86389643,6.66925821 7.34126927,6.73467151 L25.5034695,9.32939886 L27.8462685,9.66373348 L29.0507169,9.83816893 C29.5280897,9.90358223 29.8585786,10.346939 29.7851367,10.8121002 L29.1608799,15.143914 Z" id="Shape"></path>
                <path d="M20.882467,18.7654616 C20.6434694,18.342421 20.1075356,18.1732047 19.6585099,18.3706237 L18.4997339,18.8853231 C17.9275883,19.1391475 17.2468075,18.9699313 16.8702053,18.4763838 L15.1682531,16.2483697 C14.9437403,15.9522413 14.501957,15.9169879 14.2267477,16.1637616 L8.20111285,21.6280367 C7.81726832,21.9805706 8.01281176,22.6080809 8.53426093,22.6856384 L23.2652,24.9912099 C23.7866491,25.075818 24.177736,24.5329159 23.9170114,24.0816725 L20.882467,18.7654616 Z" id="Path"></path>
                <circle id="Oval" cx="24.5" cy="14.5" r="2.5"></circle>
            </g>
        </g>
    </g>
</svg>