<svg xmlns="http://www.w3.org/2000/svg" width="16" height="15" fill="none" viewBox="0 0 16 15">
  <path fill="#E4EAEF" fill-rule="evenodd"
        d="M10.7399 1.15095L2.99989 8.85095C2.87038 8.98094 2.77133 9.13805 2.70989 9.31095L1.66989 12.4909C1.53549 12.9229 1.65331 13.3938 1.97532 13.7116C2.29732 14.0294 2.76971 14.141 3.19989 14.0009L6.37989 12.9109C6.55279 12.8495 6.7099 12.7505 6.83989 12.6209L14.5299 5.00095C14.7558 4.77579 14.8828 4.46993 14.8828 4.15095C14.8828 3.83197 14.7558 3.52611 14.5299 3.30095L12.4399 1.20095C12.2214 0.968254 11.9193 0.832168 11.6003 0.822785C11.2813 0.813402 10.9716 0.931495 10.7399 1.15095Z"
        clip-rule="evenodd"/>
  <path fill="#C1CCD5" fill-rule="evenodd"
        d="M1.1725 14.0418C1.54755 14.5677 2.15347 14.88 2.79937 14.8805C3.02413 14.8829 3.24755 14.8457 3.45937 14.7705L6.62937 13.6905C6.92053 13.5939 7.18449 13.4294 7.39937 13.2105L15.0994 5.52048C15.478 5.14495 15.691 4.63375 15.691 4.10048C15.691 3.5672 15.478 3.05601 15.0994 2.68048L12.9994 0.59048C12.6242 0.214925 12.1152 0.00390625 11.5844 0.00390625C11.0535 0.00390625 10.5445 0.214925 10.1694 0.59048L2.47937 8.28048C2.25726 8.49278 2.09219 8.75759 1.99937 9.05048L0.909367 12.2305C0.699449 12.8413 0.797451 13.5159 1.1725 14.0418ZM11.2994 1.72048C11.3756 1.64264 11.4804 1.5993 11.5894 1.60048C11.7056 1.59076 11.8199 1.63501 11.8994 1.72048L13.9994 3.81048C14.0757 3.88566 14.1187 3.98833 14.1187 4.09548C14.1187 4.20263 14.0757 4.3053 13.9994 4.38048L6.27937 12.0805C6.23232 12.1229 6.17816 12.1568 6.11937 12.1805L2.93937 13.2605C2.79185 13.312 2.62781 13.273 2.51937 13.1605C2.40803 13.0511 2.37262 12.8859 2.42937 12.7405L3.50937 9.57048C3.5291 9.50977 3.56344 9.45482 3.60937 9.41048L11.2994 1.72048Z"
        clip-rule="evenodd"/>
</svg>
