<svg xmlns="http://www.w3.org/2000/svg" width="19" height="20" fill="none" viewBox="0 0 19 20">
    <path fill="#83DCFF" fill-rule="evenodd" d="M9.4398 13.0808C12.5547 13.0808 15.0798 10.5557 15.0798 7.44078C15.0798 4.3259 12.5547 1.80078 9.4398 1.80078C6.32492 1.80078 3.7998 4.3259 3.7998 7.44078C3.7998 10.5557 6.32492 13.0808 9.4398 13.0808Z" clip-rule="evenodd"/>
    <rect width="7.58" height="1.63" x="13.1758" y="13.0156" fill="#3AA6D2" rx="0.64" transform="rotate(45 13.1758 13.0156)"/>
    <path fill="#3AA6D2" fill-rule="evenodd" d="M1.5587 11.2822C2.71284 14.0633 5.42943 15.8745 8.44044 15.8704C12.5416 15.8649 15.8649 12.5416 15.8704 8.44044C15.8745 5.42943 14.0633 2.71284 11.2822 1.5587C8.50119 0.404567 5.29869 1.04047 3.16958 3.16958C1.04047 5.29869 0.404567 8.50119 1.5587 11.2822ZM3.03786 6.19864C3.94494 4.0167 6.07748 2.5964 8.44044 2.60045C11.6596 2.61145 14.265 5.22128 14.2704 8.44045C14.2704 10.8034 12.8465 12.9335 10.663 13.8369C8.47951 14.7402 5.96684 14.2387 4.2974 12.5664C2.62797 10.8941 2.13079 8.38057 3.03786 6.19864Z" clip-rule="evenodd"/>
</svg>
