<svg xmlns="http://www.w3.org/2000/svg" width="18" height="18" fill="none" viewBox="0 0 18 18">
    <path fill="#CFE0F0" fill-rule="evenodd" d="M8.99959 17.173C13.5126 17.173 17.171 13.5145 17.171 9.00154C17.171 4.48857 13.5126 0.830078 8.99959 0.830078C4.48661 0.830078 0.828125 4.48857 0.828125 9.00154C0.828125 13.5145 4.48661 17.173 8.99959 17.173Z" clip-rule="evenodd"/>
    <path fill="#9CB4CA" fill-rule="evenodd" d="M0 9C0 13.9706 4.02944 18 9 18C13.9682 17.9943 17.9943 13.9682 18 9C18 4.02944 13.9706 0 9 0C4.02944 0 0 4.02944 0 9ZM1.65625 8.9996C1.65625 4.94421 4.94379 1.65667 8.99917 1.65667C13.0522 1.66238 16.3364 4.94658 16.3421 8.9996C16.3421 13.055 13.0546 16.3425 8.99917 16.3425C4.94379 16.3425 1.65625 13.055 1.65625 8.9996Z" clip-rule="evenodd"/>
    <path stroke="#9CB4CA" stroke-linecap="round" stroke-linejoin="round" stroke-width="1.5" d="M6.21387 9.30743L8.49464 11.4507L11.7495 7.25"/>
</svg>
