<?xml version="1.0" encoding="UTF-8"?>
<svg width="10px" height="10px" viewBox="0 0 10 10" version="1.1" xmlns="http://www.w3.org/2000/svg" xmlns:xlink="http://www.w3.org/1999/xlink">
    <!-- Generator: sketchtool 53.2 (72643) - https://sketchapp.com -->
    <title>A6FC040B-6193-4145-A5FD-853C03D436E9</title>
    <desc>Created with sketchtool.</desc>
    <g id="Page-1" stroke="none" stroke-width="1">
        <g id="Выбор-периода" transform="translate(-393.000000, -178.000000)" >
            <g id="arrow-icon-back" transform="translate(393.000000, 178.000000)">
                <path d="M2.6327046,4 L9,4 C9.55228475,4 10,4.44771525 10,5 C10,5.55228475 9.55228475,6 9,6 L2.6327046,6 L5.2654092,8.6327046 C5.57819693,8.94549234 5.57819693,9.45262146 5.2654092,9.7654092 C4.95262146,10.0781969 4.44549234,10.0781969 4.1327046,9.7654092 L0.734590803,6.3672954 C0.595221293,6.22792589 0.517950957,6.0499729 0.502779797,5.86781988 C0.202346808,5.6953143 4.54696004e-17,5.37128746 0,5 C-4.54696004e-17,4.62871254 0.202346808,4.3046857 0.502779797,4.13218012 C0.517950957,3.9500271 0.595221293,3.77207411 0.734590803,3.6327046 L4.1327046,0.234590803 C4.44549234,-0.0781969345 4.95262146,-0.0781969345 5.2654092,0.234590803 C5.57819693,0.547378541 5.57819693,1.05450766 5.2654092,1.3672954 L2.6327046,4 Z" id="Combined-Shape"></path>
            </g>
        </g>
    </g>
</svg>
